<svg id="Capa_1" enable-background="new 0 0 510 510" height="512" viewBox="0 0 510 510" width="512" xmlns="http://www.w3.org/2000/svg" xmlns:xlink="http://www.w3.org/1999/xlink"><linearGradient id="lg1"><stop offset="0" stop-color="#fbc56d"/><stop offset=".593" stop-color="#dc8758"/><stop offset="1" stop-color="#9e5528"/></linearGradient><linearGradient id="SVGID_1_" gradientTransform="matrix(.707 .707 -.707 .707 749.41 -341.556)" gradientUnits="userSpaceOnUse" x1="-54.738" x2="199.195" xlink:href="#lg1" y1="874.482" y2="874.482"/><linearGradient id="SVGID_2_" gradientUnits="userSpaceOnUse" x1="43.465" x2="266.532" xlink:href="#lg1" y1="189.202" y2="412.269"/><linearGradient id="lg2"><stop offset="0" stop-color="#537983"/><stop offset=".593" stop-color="#554e56"/><stop offset="1" stop-color="#433f43"/></linearGradient><linearGradient id="SVGID_3_" gradientTransform="matrix(.707 .707 .707 -.707 15.052 -2583.456)" gradientUnits="userSpaceOnUse" x1="2094.437" x2="2254.525" xlink:href="#lg2" y1="-2082.517" y2="-2082.517"/><linearGradient id="SVGID_4_" gradientTransform="matrix(.707 .707 .707 -.707 -347.071 -2393.7)" gradientUnits="userSpaceOnUse" x1="2207.267" x2="2334.436" xlink:href="#lg2" y1="-1692.279" y2="-1692.279"/><linearGradient id="SVGID_5_" gradientTransform="matrix(.707 .707 -.707 .707 -1641.219 -890.28)" gradientUnits="userSpaceOnUse" x1="2110.102" x2="2193.123" xlink:href="#lg2" y1="-824.231" y2="-824.231"/><linearGradient id="lg3"><stop offset="0" stop-color="#fef056"/><stop offset=".5213" stop-color="#fbc56d"/><stop offset="1" stop-color="#c86d36"/></linearGradient><linearGradient id="SVGID_6_" gradientUnits="userSpaceOnUse" x1="420.445" x2="443.391" xlink:href="#lg3" y1="5.745" y2="28.691"/><linearGradient id="SVGID_7_" gradientUnits="userSpaceOnUse" x1="485.256" x2="512.128" xlink:href="#lg3" y1="70.556" y2="97.428"/><linearGradient id="SVGID_8_" gradientTransform="matrix(.707 .707 -.707 .707 -1641.219 -890.28)" gradientUnits="userSpaceOnUse" x1="2110.102" x2="2193.123" xlink:href="#lg2" y1="-783.034" y2="-783.034"/><linearGradient id="SVGID_9_" gradientUnits="userSpaceOnUse" x1="391.314" x2="414.26" xlink:href="#lg3" y1="34.876" y2="57.822"/><linearGradient id="SVGID_10_" gradientUnits="userSpaceOnUse" x1="456.125" x2="482.997" xlink:href="#lg3" y1="99.687" y2="126.559"/><linearGradient id="SVGID_11_" gradientTransform="matrix(.707 .707 -.707 .707 -1671.793 -903.728)" gradientUnits="userSpaceOnUse" x1="2111.074" x2="2248.595" xlink:href="#lg2" y1="-655.842" y2="-655.842"/><linearGradient id="SVGID_12_" gradientUnits="userSpaceOnUse" x1="185.662" x2="376.374" xlink:href="#lg2" y1="26.234" y2="216.946"/><linearGradient id="SVGID_13_" gradientTransform="matrix(.581 .581 -.933 .933 -1596.85 -432.018)" gradientUnits="userSpaceOnUse" x1="2125.128" x2="2241.54" xlink:href="#lg1" y1="-845.911" y2="-845.911"/><linearGradient id="SVGID_14_" gradientUnits="userSpaceOnUse" x1="157.81" x2="227.497" xlink:href="#lg2" y1="316.857" y2="386.544"/><linearGradient id="SVGID_15_" gradientUnits="userSpaceOnUse" x1="113.146" x2="175.204" xlink:href="#lg2" y1="272.188" y2="334.245"/><linearGradient id="SVGID_16_" gradientTransform="matrix(.707 .707 -.707 .707 240.263 -111.729)" gradientUnits="userSpaceOnUse" x1="172.737" x2="309.209" xlink:href="#lg2" y1="388.065" y2="388.065"/><linearGradient id="SVGID_17_" gradientTransform="matrix(.707 .707 -.707 .707 240.263 -111.729)" gradientUnits="userSpaceOnUse" x1="172.737" x2="309.209" xlink:href="#lg2" y1="353.889" y2="353.889"/><linearGradient id="SVGID_18_" gradientUnits="userSpaceOnUse" x1="92.569" x2="478.904" xlink:href="#lg3" y1="72.098" y2="458.432"/><linearGradient id="SVGID_19_" gradientUnits="userSpaceOnUse" x1="85" x2="403.157" xlink:href="#lg2" y1="85" y2="403.157"/><g><g><path d="m227.378 453.989c3.9-3.945 4.638-9.964 1.842-14.755-13.361-22.898-12.18-50.423 4.795-67.398 13.919-13.919 34.933-17.224 54.673-10.598 6.535 2.193 13.661-1.499 15.449-8.156 1.564-5.824 4.723-11.253 9.257-15.584 1.803-1.722 3.495-3.366 4.951-4.822 40.937-40.937 42.555-105.692 3.614-144.634s-103.697-37.324-144.634 3.614c-1.456 1.456-3.099 3.148-4.822 4.951-4.331 4.534-9.76 7.693-15.584 9.257-6.657 1.788-10.349 8.914-8.156 15.449 6.625 19.74 3.321 40.754-10.598 54.673-16.975 16.975-44.5 18.156-67.398 4.795-4.791-2.796-10.81-2.058-14.755 1.842-1.934 1.912-4.187 3.545-6.703 4.812-8.268 4.163-15.906 9.606-22.659 16.359-40.939 40.937-33.93 114.319 15.654 163.902s122.965 56.593 163.903 15.655c6.753-6.753 12.196-14.391 16.359-22.659 1.266-2.516 2.9-4.769 4.812-6.703z" fill="url(#SVGID_1_)"/><path d="m321.959 188.041c-4.846-4.846-10.093-9.063-15.643-12.656v.001s-.003-.003-.003-.003c-11.137-7.207-23.499-11.895-36.312-14.083l-40.535 36.866-25.917-25.917c-4.488 2.378-8.854 5.096-13.058 8.156l27.866 27.866-10.332 9.397-28.317-28.317c-.802.755-1.598 1.52-2.382 2.305-1.456 1.456-3.099 3.148-4.822 4.951-1.112 1.164-2.298 2.233-3.542 3.212l27.953 27.953-3.705 3.37c-7.425 6.835-10.529 15.538-6.773 19.294l37.76 37.76c3.755 3.755 12.459.652 19.294-6.773l3.366-3.709 22.426 22.426c6.373 6.373 9.048 15.683 6.634 24.366-.026.093-.051.186-.076.279-1.778 6.62-8.705 10.45-15.194 8.242-19.814-6.74-40.949-3.467-54.928 10.512-16.975 16.975-18.156 44.499-4.796 67.397 2.804 4.806 2.031 10.825-1.874 14.789-1.898 1.926-3.52 4.168-4.78 6.67-4.163 8.268-9.606 15.906-16.359 22.659-36.962 36.962-100.371 34.832-148.834-2.425 4.007 5.212 8.415 10.254 13.23 15.068 49.583 49.584 122.965 56.593 163.903 15.655 6.753-6.753 12.196-14.391 16.359-22.659 1.26-2.502 2.882-4.744 4.78-6.67 3.905-3.964 4.678-9.983 1.874-14.789-13.36-22.898-12.179-50.422 4.796-67.397 13.907-13.907 34.896-17.218 54.62-10.616 6.544 2.19 13.712-1.474 15.502-8.138 1.564-5.824 4.723-11.253 9.257-15.584 1.803-1.722 3.495-3.366 4.951-4.822 40.935-40.939 42.553-105.694 3.611-144.636zm-4.379 11.741c7.679 25.424 4.921 53.734-8.128 78.37l-33.025-33.025zm-51.246 56.466 34.955 34.955c-2.715 3.731-5.698 7.333-8.948 10.781l-35.393-35.393z" fill="url(#SVGID_2_)"/><g><path d="m141.178 403.309-34.487-34.487c-7.62-7.62-20.312-6.336-26.252 2.655l-44.236 66.96c-6.683 10.117-5.326 23.539 3.248 32.112 8.574 8.573 21.996 9.931 32.112 3.248l66.96-44.236c8.991-5.939 10.275-18.632 2.655-26.252z" fill="url(#SVGID_3_)"/><path d="m138.523 429.561-66.96 44.236c-10.116 6.683-23.539 5.326-32.112-3.248-3.189-3.189-5.375-7.049-6.525-11.16 6.942 1.942 14.598.92 20.952-3.278l66.96-44.236c8.991-5.94 10.275-18.632 2.655-26.252l-16.802-16.802s.001.001.001.001l34.487 34.487c7.619 7.62 6.335 20.313-2.656 26.252z" fill="url(#SVGID_4_)"/></g><g><g><path d="m487.068 82.976-58.703-58.704 10.606-10.608 58.704 58.704z" fill="url(#SVGID_5_)"/><path d="m442.362 4.718c-4.8-4.8-12.582-4.8-17.382 0l-5.562 5.562c-4.8 4.8-4.8 12.582 0 17.382 4.8 4.8 12.582 4.8 17.382 0l5.562-5.562c4.8-4.8 4.8-12.582 0-17.382z" fill="url(#SVGID_6_)"/><path d="m487.901 67.638-5.562 5.562c-4.8 4.8-4.8 12.582 0 17.382s12.582 4.8 17.382 0l5.562-5.562c4.8-4.8 4.8-12.582 0-17.382-4.801-4.8-12.583-4.8-17.382 0z" fill="url(#SVGID_7_)"/></g><g><path d="m457.938 112.106-58.705-58.704 10.607-10.607 58.704 58.704z" fill="url(#SVGID_8_)"/><path d="m413.231 33.849c-4.8-4.8-12.582-4.8-17.382 0l-5.562 5.562c-4.8 4.8-4.8 12.582 0 17.382 4.8 4.8 12.582 4.8 17.382 0l5.562-5.562c4.8-4.8 4.8-12.582 0-17.382z" fill="url(#SVGID_9_)"/><path d="m458.769 96.769-5.562 5.562c-4.8 4.8-4.8 12.582 0 17.382s12.582 4.8 17.382 0l5.562-5.562c4.8-4.8 4.8-12.582 0-17.382-4.8-4.799-12.582-4.8-17.382 0z" fill="url(#SVGID_10_)"/></g></g><g><path d="m241.881 305.879-37.76-37.76c-3.755-3.755-.652-12.459 6.773-19.294l215.432-195.928c2.73-2.513 6.717-2.724 8.939-.502l22.34 22.34c2.222 2.222 2.012 6.208-.502 8.939l-195.929 215.432c-6.834 7.425-15.538 10.528-19.293 6.773z" fill="url(#SVGID_11_)"/><path d="m457.606 74.739-22.345-22.345c-2.22-2.22-6.207-2.009-8.934.502l-37.973 34.954 5.712 5.712c7.968 7.968 8.018 20.87.114 28.9l-119.082 121.336-27.948-27.948-11.11 10.1 28.552 28.552-9.772 9.957-29.11-29.11-11.11 10.11 29.709 29.709-3.5 3.566c-7.083 7.195-15.985 10.101-19.745 6.341l20.813 20.813c3.752 3.752 12.457.647 19.3-6.787l195.927-215.43c2.511-2.726 2.722-6.713.502-8.932z" fill="url(#SVGID_12_)"/></g><path d="m432.626 95.836-18.462-18.462c-4.884-4.884-1.163-15.982 8-24.499l49.781-46.272c7.164-6.659 16.151-8.557 20.278-4.43l15.603 15.603c4.127 4.127 2.23 13.114-4.43 20.278l-46.272 49.781c-8.516 9.164-19.614 12.885-24.498 8.001z" fill="url(#SVGID_13_)"/><g><path d="m195.379 411.662c-2.77 0-5.519-.661-8.052-1.967-4.18-2.155-7.272-5.811-8.704-10.291-1.432-4.481-1.033-9.252 1.123-13.433 4.768-9.247 11.757-17.341 20.211-23.408l8.71-6.249c7.251-5.203 10.699-14.198 8.785-22.915-.057-.258-.223-.474-.456-.594-.435-.226-.966-.055-1.189.379-1.898 3.68-6.421 5.124-10.104 3.228-3.681-1.899-5.126-6.423-3.228-10.104 4.014-7.783 13.612-10.848 21.394-6.835 4.213 2.172 7.215 6.075 8.232 10.708 3.202 14.577-2.564 29.619-14.69 38.321l-8.71 6.249c-6.535 4.689-11.938 10.947-15.624 18.096-.431.836-.29 1.606-.167 1.991s.454 1.094 1.29 1.525c.837.432 1.607.289 1.992.167.385-.123 1.095-.454 1.526-1.291 1.899-3.681 6.422-5.125 10.103-3.229 3.682 1.898 5.127 6.422 3.229 10.104-2.156 4.181-5.811 7.271-10.292 8.704-1.764.565-3.576.844-5.379.844z" fill="url(#SVGID_14_)"/><path d="m115.986 332.21c-6.386 0-12.558-3.48-15.682-9.537-2.156-4.181-2.555-8.951-1.123-13.433 1.432-4.48 4.524-8.136 8.705-10.291 3.683-1.9 8.205-.452 10.103 3.229 1.898 3.682.452 8.205-3.23 10.103-.836.432-1.167 1.141-1.29 1.525s-.265 1.155.167 1.991c.66 1.281 2.238 1.785 3.517 1.124 7.15-3.686 13.407-9.089 18.096-15.623l6.25-8.71c8.702-12.127 23.744-17.897 38.321-14.691 4.632 1.018 8.535 4.019 10.708 8.233 4.013 7.783.946 17.38-6.836 21.395-3.681 1.897-8.205.452-10.104-3.228-1.899-3.682-.454-8.205 3.228-10.104.433-.223.603-.756.38-1.188-.121-.233-.337-.4-.594-.457-8.719-1.913-17.713 1.533-22.916 8.785l-6.25 8.71c-6.066 8.454-14.161 15.442-23.408 20.211-2.574 1.327-5.327 1.956-8.042 1.956z" fill="url(#SVGID_15_)"/></g><g><path d="m207.822 392.011c-3.681-1.897-8.204-.452-10.103 3.228-.431.837-1.141 1.168-1.526 1.291-.323.103-.923.198-1.601-.023 1.488 4.864 3.569 9.666 6.247 14.281 4.443-1.444 8.069-4.519 10.212-8.674 1.899-3.681.453-8.205-3.229-10.103z" fill="url(#SVGID_16_)"/><path d="m199.957 362.564c-2.547 1.828-4.957 3.842-7.217 6.013-1.409 7.585-1.158 15.639.695 23.626 3.675-6.877 8.932-12.905 15.267-17.452l8.71-6.249c12.087-8.673 17.849-23.645 14.717-38.177-5.045.801-9.898 2.32-14.405 4.573 1.231 8.235-2.22 16.511-9.056 21.416z" fill="url(#SVGID_17_)"/></g></g><g><path d="m402.242 409.742c-1.862 0-3.724-.689-5.171-2.067-3.061-2.915-2.896-7.974.094-10.963l10.293-10.293c2.568-2.568 2.568-6.731 0-9.298l-273.297-273.296c-6.556-6.556-15.892-9.349-24.971-7.485l-15.495 3.188c-4.055.839-8.023-1.777-8.858-5.834-.835-4.058 1.777-8.023 5.834-8.857l15.495-3.188c14.036-2.889 28.467 1.437 38.601 11.569l283.249 283.249c2.929 2.93 2.929 7.678 0 10.607l-20.472 20.472c-1.463 1.464-3.383 2.196-5.302 2.196z" fill="url(#SVGID_18_)"/><path d="m417.817 425.317c-1.919 0-3.839-.732-5.303-2.196l-325.634-325.635c-2.929-2.93-2.929-7.678 0-10.607 2.929-2.928 7.678-2.928 10.606 0l325.634 325.635c2.929 2.93 2.929 7.678 0 10.607-1.464 1.464-3.384 2.196-5.303 2.196z" fill="url(#SVGID_19_)"/></g></g></svg>